#!OML:ASF F:\VICON\USERDATA\Patient Classification 1\PLAYGROUND\JustinFriday\JustinFriday.ASF
:FULLY-SPECIFIED
:DEGREES
2284
root 7.01668 17.8987 24.9189 -539.107 -111.721 180.705
lowerback 10.3527 -1.80228 -6.1654
upperback 1.66745 -3.08762 0.590863
thorax -3.69891 -1.47056 4.494
lowerneck 11.1089 -18.2391 -15.1015
upperneck -8.53333 -25.5017 13.8323
head -0.607557 -13.032 6.48614
rclavicle -1.09829e-014 6.36111e-015
rhumerus -26.1066 -4.91946 -83.7315
rradius 22.7238
rwrist -5.20205
rhand -15.6926 -22.038
rfingers 7.12502
rthumb 10.4967 -411.756
lclavicle -1.09829e-014 6.36111e-015
lhumerus -26.6698 7.97829 77.2418
lradius 48.6104
lwrist 7.33576
lhand -20.833 -9.87922
lfingers 7.12502
lthumb 5.53555 20.0285
rfemur -25.0648 6.10721 15.7751
rtibia 41.4675
rfoot -10.1812 -11.2163
rtoes 8.57963
lfemur -4.45454 12.4059 -25.1602
ltibia 23.5785
lfoot -14.1041 -10.9445
ltoes 10.7467
2285
root 6.92225 17.8957 24.956 -538.926 -111.864 180.629
lowerback 10.4647 -1.88255 -6.182
upperback 1.64937 -3.20458 0.577018
thorax -3.76578 -1.52532 4.50926
lowerneck 11.2055 -18.4908 -14.99
upperneck -8.77198 -25.8132 14.124
head -0.622522 -13.2073 6.55013
rclavicle 1.70458e-014 -2.38542e-015
rhumerus -25.9616 -5.76358 -83.6282
rradius 22.0909
rwrist -4.39455
rhand -14.6515 -24.4105
rfingers 7.12502
rthumb 11.5009 -414.075
lclavicle 1.70458e-014 -2.38542e-015
lhumerus -26.8823 8.27728 77.0182
lradius 49.2231
lwrist 7.41035
lhand -20.953 -9.97441
lfingers 7.12502
lthumb 5.4197 19.9363
rfemur -25.2808 6.26578 15.8646
rtibia 39.2168
rfoot -9.70488 -11.0657
rtoes 10.8043
lfemur -4.1633 11.9973 -25.0779
ltibia 23.4936
lfoot -13.6588 -11.0609
ltoes 14.0947
2286
root 6.82336 17.8921 25.003 -538.568 -112.305 180.311
lowerback 10.5898 -2.15744 -6.01217
upperback 1.64925 -3.55841 0.575114
thorax -3.80307 -1.70124 4.46155
lowerneck 11.09 -18.7156 -15.1146
upperneck -8.58387 -26.112 14.4674
head -0.442695 -13.3726 6.59382
rclavicle 9.65597e-014 -3.57812e-015
rhumerus -25.8177 -6.5797 -83.5931
rradius 21.424
rwrist -3.79992
rhand -15.8947 -22.7519
rfingers 7.12502
rthumb 10.3017 -412.48
lclavicle 9.65597e-014 -3.57812e-015
lhumerus -26.9072 8.72282 76.6616
lradius 49.3676
lwrist 7.36008
lhand -20.7211 -9.82005
lfingers 7.12502
lthumb 5.64366 20.0848
rfemur -25.3838 5.84337 16.1161
rtibia 36.9498
rfoot -9.32266 -10.7244
rtoes 12.2804
lfemur -3.79231 11.7239 -24.8467
ltibia 23.4306
lfoot -13.4237 -11.5671
ltoes 15.6414
2287
root 6.72436 17.8766 25.0481 -537.591 -112.113 179.477
lowerback 10.4375 -2.23371 -5.69696
upperback 1.64572 -3.61246 0.604957
thorax -3.73359 -1.73404 4.31361
lowerneck 11.1851 -18.9063 -15.1316
upperneck -8.68501 -26.3645 14.8021
head -0.400665 -13.5193 6.67335
rclavicle 1.0635e-014 2.3059e-014
rhumerus -25.7514 -6.42772 -83.7965
rradius 21.0737
rwrist -4.14935
rhand -18.2694 -21.4988
rfingers 7.12502
rthumb 8.01033 -411.327
lclavicle 1.0635e-014 2.3059e-014
lhumerus -27.0245 9.08963 76.3097
lradius 49.7098
lwrist 7.30392
lhand -20.7139 -9.48341
lfingers 7.12502
lthumb 5.65062 20.4212
rfemur -25.6766 5.92953 16.6755
rtibia 34.8314
rfoot -8.71474 -10.7529
rtoes 7.15746
lfemur -3.46625 11.8793 -24.4719
ltibia 23.1525
lfoot -13.329 -11.7274
ltoes 15.4215
2288
root 6.62146 17.8713 25.0837 -536.925 -112.17 178.987
lowerback 10.3353 -2.27549 -5.57986
upperback 1.64394 -3.64697 0.630826
thorax -3.68047 -1.75412 4.27313
lowerneck 11.4758 -19.0851 -14.9449
upperneck -9.18593 -26.5741 15.1876
head -0.530161 -13.6556 6.80304
rclavicle 4.84538e-014 2.8625e-014
rhumerus -25.8209 -6.05031 -84.0526
rradius 21.1204
rwrist -4.32539
rhand -15.1314 -24.8394
rfingers 7.12502
rthumb 11.038 -414.529
lclavicle 4.84538e-014 2.8625e-014
lhumerus -27.0771 9.18873 76.1213
lradius 49.9835
lwrist 7.36827
lhand -20.7056 -9.22624
lfingers 7.12502
lthumb 5.6586 20.6782
rfemur -26.1303 6.61053 16.8297
rtibia 32.766
rfoot -8.9443 -10.77
rtoes 7.84879
lfemur -3.09221 12.068 -24.1537
ltibia 22.7727
lfoot -13.0708 -12.1736
ltoes 15.8864
